<svg width="128" height="135" viewBox="0 0 128 135" fill="none" xmlns="http://www.w3.org/2000/svg">
<path d="M24.4368 66.5694L24.7082 66.4888C25.8825 67.8847 24.8277 67.0844 25.9705 68.317C26.6593 68.5814 27.8428 70.3915 28.3804 70.6777C28.3804 70.6777 28.9 71.2953 28.7819 71.3314C29.0992 71.3809 29.3327 71.9861 29.7914 72.2542C29.9161 72.4024 29.7082 72.1554 29.6892 71.9815L30.574 72.7561C30.8754 73.1144 30.8592 73.2967 30.4874 72.9556C32.9312 75.4999 35.5224 77.8986 38.2477 80.1395C40.9863 82.4522 43.8751 84.5815 46.8955 86.5136C46.6045 86.1677 45.7079 85.6562 45.5266 85.2391C46.3318 85.6166 46.5731 86.0043 46.9879 86.1195C47.0595 86.6077 48.5514 87.2724 48.9549 87.9033L49.2679 87.8721L49.5588 88.218C50.8519 88.8684 52.1113 89.5833 53.3321 90.36C55.1106 91.2898 56.0543 91.5296 57.0153 92.0924C56.9114 91.9689 56.5211 91.7065 57.0107 91.8854C57.0153 92.0924 58.2991 92.3837 58.4469 92.6602C58.9117 92.8599 60.3747 93.5911 59.9798 93.1217C60.1876 93.3687 61.4659 93.9811 60.6466 93.7631C61.0477 93.9525 61.4583 94.1211 61.8769 94.2681L61.3186 93.9573C62.3888 94.5127 63.4983 94.9894 64.6384 95.3837L64.1278 95.0538C64.8429 95.2716 65.5126 95.6155 66.1055 96.0693L65.1098 95.7677C66.3579 96.262 67.6312 96.6906 68.9247 97.0519L68.4807 96.8769L74.56 98.5345L78.2765 99.3741C79.0673 99.5309 79.867 99.6401 80.6713 99.7011L80.001 99.3579L81.3778 99.5077C81.2201 99.4715 80.5807 99.9461 80.4623 99.8558C83.8982 100.632 87.3728 101.229 90.8721 101.647C93.1157 101.995 95.3712 102.081 97.258 102.308C99.1448 102.535 100.594 102.519 101.278 102.576C102.379 102.726 101.507 102.848 101.517 102.86C102.864 102.824 102.107 102.68 103.254 102.707C103.56 102.744 103.142 102.801 103.018 102.905C103.526 102.879 103.99 102.952 104.021 102.863C103.407 102.789 103.668 102.57 103.406 102.41L104.874 102.441L104.814 102.597C105.549 102.366 106.315 102.256 107.083 102.27C108.29 102.268 109.6 102.263 110.814 102.169C112.029 102.076 113.359 101.969 114.572 101.899C114.51 101.951 114.039 102.072 113.525 102.167C113.901 102.125 114.278 102.11 114.655 102.124C114.056 102.016 115.67 101.945 115.202 101.917C116.946 101.42 119.338 101.517 120.842 101.012C121.716 98.959 122.477 96.8608 123.123 94.7263C123.472 94.6634 123.825 94.6201 124.18 94.5967C123.674 94.5745 123.167 94.6368 122.681 94.7812L122.64 94.9844C121.548 95.2489 122.348 94.914 121.285 95.112C121.181 94.9885 122.178 94.7619 122.994 94.6237C122.369 94.6437 121.751 94.7583 121.16 94.9638C120.431 95.029 121.214 94.7501 120.333 94.837C119.624 95.0849 118.884 95.2317 118.135 95.2729V95.2729C116.36 95.3309 115.46 95.8985 113.822 95.8417L113.959 95.7268C113.378 95.6667 112.255 95.8941 111.244 95.9012C111.542 95.9033 111.808 96.0174 111.182 96.0798C109.99 96.0488 109.151 96.1852 108.311 96.0689L107.478 96.2632C103.36 96.3751 99.2405 96.2485 95.1396 95.8839C91.0414 95.5185 86.9722 94.8899 82.9573 94.002L83.1418 93.9945C78.9326 93.0921 74.789 91.9125 70.7382 90.4634C66.6347 88.9839 62.6172 87.2787 58.7041 85.3557C57.886 84.736 56.645 84.0923 55.7815 83.5951C56.257 83.9335 56.0517 83.9163 55.6326 83.7205C52.8864 82.0435 55.3921 83.7118 52.5611 82.0852C49.4361 80.2079 46.4513 78.1081 43.6295 75.8021C40.8638 73.5882 38.2479 71.194 35.7987 68.6352C34.3184 67.5811 32.9628 65.768 31.619 64.599L31.7333 64.7349C31.4319 64.3767 30.7772 63.5984 29.9355 62.5978L28.5014 60.893L27.069 59.0391C26.0298 57.8037 25.1271 56.4535 24.3723 55.3798L22.6691 52.952L22.8562 53.1743C22.2269 52.3162 21.6963 51.3897 21.2746 50.4123C21.1551 50.7238 20.1696 49.4011 19.8492 48.869C19.3229 48.067 18.0049 46.349 17.2659 44.9665L17.4276 44.9571C16.5719 43.6617 15.813 42.3047 15.1569 40.8972C14.2508 38.9381 13.1618 35.8039 11.9806 33.1902L11.7234 31.2969L11.5468 31.0869C10.6658 30.9028 9.76336 30.8388 8.86404 30.8966C8.49391 30.8854 8.12552 30.9567 7.78565 31.1053C7.44579 31.254 7.14298 31.4763 6.89924 31.7561C6.65551 32.0359 6.47696 32.3662 6.37658 32.7228C6.27619 33.0795 6.2565 33.4537 6.31892 33.8181L6.15928 33.8048L6.4615 34.542C6.72475 35.4597 7.02612 35.818 6.86648 35.8046L6.43668 34.5629C6.72273 35.4825 6.43118 34.884 6.2294 34.5685L6.53653 35.6392C6.66123 35.7874 6.53826 35.49 6.51719 35.339C6.81736 35.8811 7.0784 36.444 7.29831 37.0235C7.66519 37.9384 7.1121 37.1802 7.53527 38.2376C9.69178 43.8568 12.3956 49.2485 15.608 54.3354C15.629 54.4864 15.608 54.3354 15.4625 54.1624C16.5354 55.6647 17.3616 57.1004 18.4175 58.406C18.544 58.6287 18.6276 58.8733 18.6638 59.1271C18.6551 58.9656 19.955 60.8888 21.4578 62.7257L23.4741 65.2486L24.4368 66.5694Z" fill="white"/>
<path d="M115.4 90.6114L115.299 90.8441C114.818 90.7004 115.247 90.5297 114.782 90.4563C114.472 90.7174 114.058 90.2004 113.851 90.3324C113.851 90.3324 113.642 90.2344 113.685 90.1347C113.524 90.2705 113.457 90.1156 113.295 90.125C113.134 90.1344 113.295 90.125 113.378 90.2238L113.047 90.2075C112.953 90.0963 112.891 90.0222 113.088 90.0043C112.289 89.6847 108.451 88.2723 107.561 88.0714C107.676 88.2073 107.914 88.2388 107.935 88.5162C107.668 88.5512 107.605 88.3507 107.459 88.4532C107.491 88.0885 106.987 88.1956 106.918 87.8108L106.757 87.9466L106.653 87.8231C105.575 87.6753 106.388 87.8353 105.51 87.4976C104.973 87.3378 104.635 87.5162 104.388 87.3233C104.388 87.3233 104.523 87.4839 104.362 87.4933C104.2 87.5027 103.959 87.4941 103.942 87.2974C103.925 87.1008 103.397 87.1024 103.464 87.3836C103.381 87.2848 103.067 87.0633 103.332 87.0511C103.249 86.9523 103.092 86.9161 102.976 86.9293L103.1 87.0776C102.64 86.9586 102.48 86.6926 102.125 86.8007L102.25 86.9489C101.993 86.87 101.757 86.8157 101.746 86.5507L102.03 86.586C101.682 86.4428 101.313 86.3613 100.937 86.3451L101.02 86.4439C100.475 86.5016 98.0418 85.827 97.5259 85.9445L97.6922 86.1422L97.2777 86.1534C97.2777 86.1534 97.6538 85.6682 97.7122 85.7879C96.9321 85.5158 92.8973 84.1213 92.2559 83.7116C92.048 83.4646 92.3049 83.4172 92.3298 83.3963C91.9461 83.3182 92.1436 83.5529 91.8136 83.3875C91.4837 83.2221 91.9253 83.2935 91.9626 83.2622C91.9998 83.2309 91.7218 83.1272 91.6805 83.2041C91.6393 83.281 91.6647 83.5128 91.6733 83.6743L91.2977 83.505L91.4095 83.4111C91.4095 83.4111 91.0495 83.7139 90.7028 83.4782C90.3561 83.2424 89.4081 82.9218 88.7897 82.6404C88.7897 82.6404 88.9387 82.5151 89.1399 82.5779C89.3411 82.6406 88.9159 82.5132 88.8555 82.4162C89.001 82.5892 88.5695 82.4037 88.6942 82.552C88.0954 82.697 87.6278 82.1411 87.1408 82.1922C86.9777 82.4771 84.1331 86.8318 83.966 87.1623C83.8828 87.0635 83.7128 87.0378 83.694 86.9903C83.6753 86.9428 83.9019 87.2373 84.0739 87.2403L84.2229 87.115C84.5505 87.1769 84.2956 87.2014 84.5448 87.3716C84.5078 87.5292 84.2174 87.436 83.9602 87.357C84.1802 87.4673 84.3464 87.665 84.5078 87.5292C84.6692 87.3935 84.3588 87.6546 84.6143 87.8826C84.8698 88.1107 85.1097 87.8667 85.278 88.0416C85.6934 88.4094 86.1198 88.1351 86.5144 88.4782L86.4523 88.5304C86.5874 88.691 86.9543 88.6988 87.1994 88.9145C87.1371 88.8404 87.0539 88.7416 87.3236 88.8101C87.5932 88.8786 87.8899 89.0298 88.0874 89.2645L88.3795 89.2086C89.5291 89.7183 94.2131 91.305 95.4163 91.7273C97.2252 92.3152 100.941 93.683 102.88 94.0981C103.168 94.3092 103.486 94.4753 103.824 94.5906C103.699 94.4423 103.774 94.3797 103.948 94.4861C104.861 94.8152 104.048 94.4026 104.991 94.6424C107.052 95.2587 109.077 95.9842 111.059 96.8158C111.639 96.7496 112.239 97.1099 112.778 97.1206C113.111 96.8615 116.109 97.905 116.771 98.0867C117.355 98.1012 117.221 98.3197 117.628 98.526C117.652 98.2524 118.158 98.2489 118.351 98.2765C118.635 98.3118 119.317 98.2656 119.769 98.3494L119.721 98.4947C120.168 98.5024 120.611 98.5782 121.034 98.7195C121.783 99.0909 122.587 99.3405 123.415 99.4587L123.862 99.9899L123.924 99.9377C123.924 99.9377 126.001 95.4268 125.186 94.1298L125.285 94.0463L125.059 94.0043C124.818 93.8693 124.657 94.0051 124.715 93.8721L125.061 93.9816C124.818 93.8693 124.978 93.8827 125.135 93.7926C125.037 93.7563 124.945 93.706 124.861 93.6433C124.799 93.6955 124.861 93.6433 124.934 93.7298C125.007 93.8162 124.547 93.8236 124.408 93.7086C124.269 93.5936 124.451 93.4826 124.148 93.3998C122.563 92.8766 121.077 92.2698 119.425 91.8672C119.425 91.8672 119.425 91.8672 119.499 91.8046C118.999 91.7397 118.576 91.5894 118.112 91.5161C118.032 91.467 117.97 91.3934 117.935 91.3061C117.069 91.1574 116.22 90.9248 115.4 90.6114Z" fill="white"/>
<path d="M110.608 98.0182L110.763 98.2035C110.306 98.4408 110.493 98.0087 110.102 98.2744C110.089 98.6867 109.373 98.5923 109.37 98.8905C109.366 99.1888 109.146 98.9522 109.098 98.8448C109.126 99.0538 108.912 99.0015 108.8 99.0954C108.689 99.1894 108.8 99.0954 108.894 99.2066L108.633 99.4259C108.484 99.4249 108.399 99.3489 108.498 99.2653C107.688 99.5879 103.828 101.274 103.027 101.758C103.204 101.842 103.429 101.631 103.633 101.797C103.422 101.975 103.278 101.905 103.26 102.111C103.021 101.826 102.73 102.261 102.406 102.027L102.433 102.236L102.265 102.188C101.369 102.836 102.067 102.355 101.193 102.753C100.698 103.021 100.51 103.327 100.237 103.43C100.237 103.43 100.452 103.46 100.351 103.566C100.25 103.673 100.041 103.827 99.9244 103.714C99.808 103.601 99.3736 103.967 99.6123 104.124C99.5188 104.013 99.1025 104.174 99.2803 103.982C99.1534 104.01 99.0345 104.067 98.9325 104.148L99.1293 104.13C98.7693 104.433 98.4021 104.299 98.2246 104.617L98.4174 104.644C98.2064 104.822 97.9702 104.894 97.7667 104.728L98.0026 104.529C97.6483 104.679 97.3199 104.884 97.0297 105.137L97.129 105.053C96.7817 105.472 94.521 106.741 94.2173 107.186L94.4849 107.277L94.1622 107.549C94.1622 107.549 94.0903 106.934 94.1567 106.963C93.3989 107.347 89.4834 109.27 88.6982 109.445C88.3625 109.474 88.5008 109.21 88.4904 109.198C88.1924 109.449 88.4121 109.433 88.0931 109.532C87.7741 109.632 88.01 109.433 88.0865 109.348C88.163 109.262 87.8276 109.418 87.8755 109.525C87.9234 109.633 88.0729 109.76 88.1768 109.884L87.7958 110.035L87.7023 109.924C87.6278 109.987 87.6494 110.391 87.2392 110.483C86.5764 110.703 85.9138 111.049 85.2594 111.304C85.2074 111.242 85.3564 111.117 85.4701 111C85.3956 111.063 85.2839 111.157 85.1511 111.1C85.3752 111.165 84.9153 111.298 85.0749 111.312C84.7527 111.836 84.0085 111.808 83.6985 112.195C83.7862 112.501 84.9044 117.51 85.0877 117.904C84.9894 117.946 84.8865 117.976 84.7811 117.993C84.7811 117.993 85.1148 117.987 85.2389 117.882L85.2092 117.57C85.4699 117.35 85.3027 117.681 85.6278 117.513C85.7317 117.636 85.4419 117.796 85.1685 117.899C85.3423 117.753 85.6575 117.825 85.6757 117.62C85.9202 117.583 85.7384 117.821 86.0181 117.775C86.2978 117.73 86.4029 117.451 86.5395 117.337C87.0969 117.269 87.2098 116.773 87.7196 116.724C87.9145 116.728 88.1896 116.476 88.5149 116.434C88.5149 116.434 88.2909 116.37 88.4214 116.323C88.5519 116.277 88.9722 116.071 89.2811 116.085L89.5629 116.017C90.7537 115.542 95.2696 113.326 96.3689 112.717C98.1123 111.841 101.717 110.18 103.444 109.107C103.798 109.059 104.143 108.961 104.469 108.814C104.285 108.822 104.334 108.654 104.365 108.691C105.264 108.272 104.377 108.554 105.237 108.063C107.177 107.044 109.176 106.137 111.221 105.35C111.606 104.9 112.285 104.75 112.697 104.382C113.144 104.007 116.182 102.78 116.755 102.403L116.693 102.455C117.152 102.069 117.176 102.323 117.636 102.19C117.459 101.98 117.835 101.621 118.005 101.52C118.229 101.332 118.762 100.883 119.122 100.58L119.216 100.692C119.584 100.387 119.993 100.135 120.431 99.9436C121.245 99.7115 122.02 99.3584 122.73 98.8961L123.422 98.9886L123.397 99.0095C123.397 99.0095 121.927 94.2128 120.436 93.8008L120.353 93.7019L120.179 93.8481C119.91 93.9059 119.869 94.1092 119.823 93.979L120.158 93.8234C119.897 93.9164 120.075 93.7246 120.033 93.6752C119.934 93.7215 119.826 93.7476 119.716 93.752C119.716 93.752 119.716 93.752 119.789 93.8384C119.862 93.9249 119.554 94.1632 119.367 94.1935C119.181 94.2238 119.222 94.0205 118.948 94.1239C117.395 94.7976 115.821 95.4466 114.341 96.2067C113.944 96.5409 113.471 96.685 113.08 96.9508C113.032 96.9547 112.983 96.9486 112.937 96.9329C112.891 96.9172 112.848 96.8922 112.813 96.8595C112.111 97.3062 111.373 97.6938 110.608 98.0182Z" fill="white"/>
</svg>
