<svg width="50" height="50" viewBox="0 0 50 50" fill="none" xmlns="http://www.w3.org/2000/svg">
<circle cx="24.9998" cy="24.9646" r="24.9646" fill="white"/>
<path d="M27.7094 25.1899C27.7094 26.7844 26.4209 28.0729 24.8264 28.0729C23.2319 28.0729 21.9434 26.7844 21.9434 25.1899C21.9434 23.5954 23.2319 22.3069 24.8264 22.3069C26.4209 22.3069 27.7094 23.5954 27.7094 25.1899Z" stroke="#345333" stroke-width="2" stroke-linecap="round" stroke-linejoin="round"/>
<path d="M24.8262 31.8498C27.669 31.8498 30.3185 30.1748 32.1626 27.2757C32.8874 26.1402 32.8874 24.2316 32.1626 23.0961C30.3185 20.197 27.669 18.522 24.8262 18.522C21.9835 18.522 19.334 20.197 17.4899 23.0961C16.7651 24.2316 16.7651 26.1402 17.4899 27.2757C19.334 30.1748 21.9835 31.8498 24.8262 31.8498Z" stroke="#345333" stroke-width="2" stroke-linecap="round" stroke-linejoin="round"/>
</svg>
