<svg width="62" height="62" viewBox="0 0 62 62" fill="none" xmlns="http://www.w3.org/2000/svg">
<circle cx="31" cy="31" r="31" fill="#D6DAD1"/>
<path d="M33 24.5H29M39 26V36C39 40 38 41 34 41H28C24 41 23 40 23 36V26C23 22 24 21 28 21H34C38 21 39 22 39 26Z" stroke="#345333" stroke-width="2" stroke-linecap="round" stroke-linejoin="round"/>
<path d="M31 38.1C31.4111 38.1 31.8053 37.9367 32.096 37.646C32.3867 37.3553 32.55 36.9611 32.55 36.55C32.55 36.1389 32.3867 35.7447 32.096 35.454C31.8053 35.1633 31.4111 35 31 35C30.5889 35 30.1947 35.1633 29.904 35.454C29.6133 35.7447 29.45 36.1389 29.45 36.55C29.45 36.9611 29.6133 37.3553 29.904 37.646C30.1947 37.9367 30.5889 38.1 31 38.1V38.1Z" stroke="#345333" stroke-width="2" stroke-linecap="round" stroke-linejoin="round"/>
</svg>
