<svg width="128" height="135" viewBox="0 0 128 135" fill="none" xmlns="http://www.w3.org/2000/svg">
<path d="M24.4366 66.5694L24.708 66.4888C25.8823 67.8847 24.8275 67.0844 25.9703 68.317C26.6591 68.5814 27.8426 70.3915 28.3801 70.6777C28.3801 70.6777 28.8997 71.2953 28.7817 71.3314C29.0989 71.3809 29.3324 71.9861 29.7911 72.2542C29.9158 72.4024 29.708 72.1554 29.689 71.9815L30.5737 72.7561C30.8751 73.1144 30.8589 73.2967 30.4871 72.9556C32.9309 75.4999 35.5221 77.8986 38.2475 80.1395C40.986 82.4522 43.8749 84.5815 46.8953 86.5136C46.6043 86.1677 45.7077 85.6562 45.5264 85.2391C46.3315 85.6166 46.5728 86.0043 46.9877 86.1194C47.0592 86.6077 48.5511 87.2724 48.9547 87.9033L49.2676 87.8721L49.5586 88.218C50.8517 88.8684 52.111 89.5833 53.3319 90.36C55.1104 91.2898 56.0541 91.5296 57.0151 92.0924C56.9112 91.9689 56.5209 91.7065 57.0105 91.8854C57.0151 92.0924 58.2988 92.3837 58.4466 92.6602C58.9114 92.8599 60.3744 93.5911 59.9795 93.1217C60.1874 93.3687 61.4656 93.9811 60.6464 93.7631C61.0474 93.9525 61.4581 94.121 61.8767 94.2681L61.3184 93.9572C62.3885 94.5127 63.498 94.9894 64.6382 95.3837L64.1275 95.0538C64.8426 95.2716 65.5124 95.6155 66.1052 96.0693L65.1096 95.7677C66.3576 96.262 67.631 96.6906 68.9245 97.0519L68.4805 96.8769L74.5598 98.5345L78.2762 99.3741C79.067 99.5309 79.8667 99.6401 80.6711 99.7011L80.0008 99.3579L81.3775 99.5077C81.2199 99.4715 80.5804 99.9461 80.4621 99.8558C83.898 100.632 87.3725 101.229 90.8719 101.647C93.1155 101.995 95.371 102.081 97.2578 102.308C99.1446 102.535 100.593 102.519 101.278 102.576C102.379 102.726 101.506 102.848 101.517 102.86C102.864 102.824 102.107 102.68 103.253 102.707C103.56 102.744 103.142 102.801 103.018 102.905C103.525 102.879 103.99 102.952 104.021 102.863C103.407 102.789 103.668 102.57 103.406 102.41L104.874 102.441L104.814 102.597C105.548 102.366 106.315 102.256 107.083 102.27C108.289 102.268 109.599 102.263 110.814 102.169C112.028 102.076 113.359 101.969 114.571 101.899C114.509 101.951 114.039 102.072 113.525 102.167C113.9 102.125 114.278 102.11 114.655 102.124C114.056 102.016 115.67 101.945 115.202 101.917C116.946 101.42 119.338 101.517 120.842 101.012C121.716 98.959 122.477 96.8608 123.122 94.7263C123.472 94.6634 123.825 94.6201 124.179 94.5967C123.673 94.5745 123.167 94.6368 122.681 94.7812L122.64 94.9844C121.548 95.2489 122.348 94.914 121.285 95.112C121.181 94.9885 122.177 94.7619 122.994 94.6236C122.369 94.6437 121.751 94.7583 121.16 94.9638C120.43 95.029 121.213 94.7501 120.333 94.837C119.624 95.0849 118.883 95.2317 118.134 95.2729C116.36 95.3309 115.46 95.8985 113.822 95.8417L113.959 95.7268C113.378 95.6667 112.255 95.8941 111.243 95.9012C111.542 95.9033 111.808 96.0174 111.182 96.0798C109.99 96.0488 109.151 96.1852 108.311 96.0689L107.478 96.2632C103.36 96.3751 99.2403 96.2485 95.1394 95.8839C91.0412 95.5185 86.972 94.8899 82.9571 94.002L83.1415 93.9945C78.9324 93.0921 74.7888 91.9125 70.7379 90.4634C66.6345 88.9839 62.617 87.2787 58.7038 85.3557C57.8857 84.736 56.6447 84.0923 55.7813 83.5951C56.2567 83.9335 56.0515 83.9163 55.6323 83.7204C52.8862 82.0435 55.3918 83.7118 52.5608 82.0852C49.4359 80.2079 46.451 78.1081 43.6292 75.8021C40.8636 73.5882 38.2477 71.194 35.7984 68.6352C34.3181 67.5811 32.9625 65.768 31.6188 64.599L31.7331 64.7349C31.4317 64.3767 30.777 63.5984 29.9352 62.5978L28.5011 60.893L27.0688 59.0391C26.0296 57.8037 25.1269 56.4535 24.372 55.3798L22.6689 52.952L22.856 53.1743C22.2266 52.3162 21.6961 51.3897 21.2744 50.4123C21.1549 50.7238 20.1693 49.4011 19.8489 48.869C19.3227 48.067 18.0046 46.349 17.2657 44.9665L17.4273 44.9571C16.5717 43.6617 15.8127 42.3047 15.1567 40.8972C14.2506 38.9381 13.1615 35.8039 11.9803 33.1902L11.7232 31.2969L11.5465 31.0869C10.6655 30.9028 9.76311 30.8388 8.8638 30.8966C8.49366 30.8854 8.12527 30.9567 7.78541 31.1053C7.44554 31.254 7.14274 31.4763 6.899 31.7561C6.65526 32.0359 6.47671 32.3662 6.37633 32.7228C6.27595 33.0795 6.25626 33.4537 6.31868 33.8181L6.15904 33.8048L6.46126 34.542C6.72451 35.4597 7.02588 35.818 6.86624 35.8046L6.43644 34.5629C6.72249 35.4825 6.43094 34.884 6.22916 34.5685L6.53628 35.6392C6.66099 35.7874 6.53802 35.49 6.51695 35.339C6.81712 35.8811 7.07815 36.444 7.29807 37.0235C7.66495 37.9384 7.11186 37.1802 7.53503 38.2376C9.69154 43.8568 12.3954 49.2485 15.6077 54.3354C15.6288 54.4864 15.6077 54.3354 15.4622 54.1624C16.5352 55.6647 17.3614 57.1004 18.4173 58.406C18.5438 58.6287 18.6273 58.8733 18.6635 59.1271C18.6549 58.9656 19.9547 60.8888 21.4575 62.7257L23.4739 65.2486L24.4366 66.5694Z" fill="#313131"/>
<path d="M115.4 90.6114L115.299 90.8441C114.818 90.7004 115.246 90.5297 114.782 90.4563C114.472 90.7174 114.058 90.2004 113.851 90.3324C113.851 90.3324 113.641 90.2344 113.685 90.1347C113.523 90.2705 113.457 90.1156 113.295 90.125C113.133 90.1344 113.295 90.125 113.378 90.2238L113.046 90.2075C112.953 90.0963 112.891 90.0222 113.087 90.0043C112.289 89.6847 108.451 88.2723 107.561 88.0714C107.675 88.2073 107.914 88.2388 107.935 88.5162C107.668 88.5512 107.605 88.3507 107.458 88.4532C107.491 88.0885 106.987 88.1956 106.918 87.8108L106.756 87.9466L106.653 87.8231C105.574 87.6753 106.387 87.8353 105.51 87.4976C104.972 87.3378 104.635 87.5162 104.388 87.3233C104.388 87.3233 104.523 87.4839 104.361 87.4933C104.2 87.5027 103.959 87.4941 103.942 87.2974C103.925 87.1008 103.397 87.1024 103.463 87.3836C103.38 87.2848 103.067 87.0633 103.332 87.0511C103.249 86.9523 103.091 86.9161 102.975 86.9293L103.1 87.0776C102.64 86.9586 102.479 86.6926 102.125 86.8007L102.25 86.9489C101.993 86.87 101.756 86.8157 101.745 86.5507L102.029 86.586C101.682 86.4428 101.312 86.3613 100.936 86.3451L101.02 86.4439C100.475 86.5016 98.0415 85.827 97.5256 85.9445L97.6919 86.1422L97.2774 86.1534C97.2774 86.1534 97.6535 85.6682 97.7118 85.7879C96.9318 85.5158 92.897 84.1213 92.2556 83.7116C92.0477 83.4646 92.3046 83.4172 92.3295 83.3963C91.9458 83.3182 92.1433 83.5529 91.8133 83.3875C91.4834 83.2221 91.925 83.2935 91.9623 83.2622C91.9995 83.2309 91.7215 83.1272 91.6802 83.2041C91.639 83.281 91.6643 83.5128 91.673 83.6743L91.2974 83.505L91.4092 83.4111C91.4092 83.4111 91.0492 83.7139 90.7025 83.4782C90.3558 83.2424 89.4077 82.9218 88.7894 82.6404C88.7894 82.6404 88.9384 82.5151 89.1396 82.5779C89.3408 82.6406 88.9156 82.5132 88.8552 82.4162C89.0007 82.5892 88.5691 82.4037 88.6939 82.552C88.0951 82.697 87.6275 82.1411 87.1405 82.1922C86.9774 82.4771 84.1328 86.8318 83.9657 87.1623C83.8825 87.0635 83.7125 87.0378 83.6937 86.9903C83.675 86.9428 83.9016 87.2373 84.0736 87.2403L84.2226 87.115C84.5502 87.1769 84.2953 87.2014 84.5445 87.3716C84.5075 87.5292 84.2171 87.436 83.9599 87.357C84.1799 87.4673 84.3461 87.665 84.5075 87.5292C84.6689 87.3935 84.3585 87.6546 84.614 87.8826C84.8695 88.1107 85.1094 87.8667 85.2777 88.0416C85.6931 88.4094 86.1195 88.1351 86.5141 88.4782L86.452 88.5304C86.5871 88.691 86.954 88.6988 87.1991 88.9145C87.1368 88.8404 87.0536 88.7416 87.3233 88.8101C87.5929 88.8786 87.8896 89.0298 88.0871 89.2645L88.3792 89.2086C89.5287 89.7183 94.2128 91.305 95.416 91.7273C97.2249 92.3152 100.94 93.683 102.88 94.0981C103.167 94.3092 103.486 94.4753 103.824 94.5906C103.699 94.4423 103.774 94.3797 103.948 94.4861C104.861 94.8152 104.047 94.4026 104.991 94.6424C107.051 95.2587 109.077 95.9842 111.059 96.8158C111.639 96.7496 112.239 97.1099 112.778 97.1206C113.111 96.8615 116.109 97.905 116.77 98.0867C117.355 98.1012 117.221 98.3197 117.628 98.526C117.652 98.2524 118.158 98.2489 118.35 98.2765C118.634 98.3118 119.316 98.2656 119.768 98.3494L119.721 98.4947C120.168 98.5024 120.61 98.5782 121.034 98.7195C121.782 99.0909 122.586 99.3405 123.415 99.4587L123.862 99.9899L123.924 99.9377C123.924 99.9377 126.001 95.4268 125.186 94.1298L125.285 94.0463L125.059 94.0043C124.818 93.8693 124.657 94.0051 124.715 93.8721L125.061 93.9816C124.818 93.8693 124.978 93.8827 125.135 93.7926C125.037 93.7563 124.945 93.706 124.861 93.6433C124.799 93.6955 124.861 93.6433 124.934 93.7298C125.007 93.8162 124.547 93.8236 124.407 93.7086C124.268 93.5936 124.45 93.4826 124.148 93.3998C122.563 92.8766 121.077 92.2698 119.424 91.8672C119.424 91.8672 119.424 91.8672 119.499 91.8046C118.999 91.7397 118.576 91.5894 118.111 91.5161C118.031 91.467 117.969 91.3934 117.935 91.3061C117.069 91.1574 116.22 90.9248 115.4 90.6114Z" fill="#313131"/>
<path d="M110.608 98.0182L110.764 98.2035C110.306 98.4408 110.494 98.0087 110.102 98.2744C110.089 98.6867 109.374 98.5923 109.37 98.8905C109.367 99.1888 109.146 98.9522 109.098 98.8448C109.126 99.0538 108.912 99.0015 108.801 99.0954C108.689 99.1894 108.801 99.0954 108.894 99.2066L108.633 99.4259C108.484 99.4249 108.399 99.3489 108.498 99.2653C107.689 99.5879 103.828 101.274 103.027 101.758C103.204 101.842 103.429 101.631 103.633 101.797C103.422 101.975 103.279 101.905 103.26 102.111C103.021 101.826 102.73 102.261 102.406 102.027L102.434 102.236L102.266 102.188C101.369 102.836 102.067 102.355 101.193 102.753C100.698 103.021 100.51 103.327 100.237 103.43C100.237 103.43 100.453 103.46 100.351 103.566C100.25 103.673 100.041 103.827 99.9246 103.714C99.8082 103.601 99.3737 103.967 99.6125 104.124C99.519 104.013 99.1027 104.174 99.2805 103.982C99.1536 104.01 99.0346 104.067 98.9326 104.148L99.1295 104.13C98.7695 104.433 98.4023 104.299 98.2248 104.617L98.4176 104.644C98.2066 104.822 97.9704 104.894 97.7669 104.728L98.0028 104.529C97.6485 104.679 97.32 104.884 97.0299 105.137L97.1292 105.053C96.7819 105.472 94.5212 106.741 94.2175 107.186L94.4851 107.277L94.1623 107.549C94.1623 107.549 94.0905 106.934 94.1569 106.963C93.3991 107.347 89.4836 109.27 88.6984 109.445C88.3627 109.474 88.501 109.21 88.4906 109.198C88.1926 109.449 88.4123 109.433 88.0933 109.532C87.7743 109.632 88.0102 109.433 88.0867 109.348C88.1632 109.262 87.8277 109.418 87.8757 109.525C87.9236 109.633 88.0731 109.76 88.177 109.884L87.796 110.035L87.7024 109.924C87.628 109.987 87.6496 110.391 87.2394 110.483C86.5765 110.703 85.914 111.049 85.2596 111.304C85.2076 111.242 85.3566 111.117 85.4703 111C85.3958 111.063 85.2841 111.157 85.1513 111.1C85.3753 111.165 84.9155 111.298 85.0751 111.312C84.7529 111.836 84.0087 111.808 83.6986 112.195C83.7864 112.501 84.9046 117.51 85.0879 117.904C84.9896 117.946 84.8867 117.976 84.7813 117.993C84.7813 117.993 85.115 117.987 85.2391 117.882L85.2094 117.57C85.4701 117.35 85.3029 117.681 85.628 117.513C85.7319 117.636 85.4421 117.796 85.1687 117.899C85.3425 117.753 85.6577 117.825 85.6759 117.62C85.9204 117.583 85.7385 117.821 86.0183 117.775C86.298 117.73 86.4031 117.451 86.5397 117.337C87.0971 117.269 87.21 116.773 87.7198 116.724C87.9147 116.728 88.1898 116.476 88.5151 116.434C88.5151 116.434 88.2911 116.37 88.4216 116.323C88.5521 116.277 88.9724 116.071 89.2813 116.085L89.5631 116.017C90.7539 115.542 95.2698 113.326 96.3691 112.717C98.1125 111.841 101.718 110.18 103.444 109.107C103.798 109.059 104.143 108.961 104.469 108.814C104.285 108.822 104.334 108.654 104.365 108.691C105.264 108.272 104.378 108.554 105.237 108.063C107.178 107.044 109.176 106.137 111.221 105.35C111.606 104.9 112.285 104.75 112.697 104.382C113.144 104.007 116.182 102.78 116.755 102.403L116.693 102.455C117.153 102.069 117.176 102.323 117.636 102.19C117.459 101.98 117.836 101.621 118.005 101.52C118.229 101.332 118.763 100.883 119.123 100.58L119.216 100.692C119.584 100.387 119.993 100.135 120.431 99.9436C121.245 99.7115 122.02 99.3584 122.73 98.8961L123.422 98.9886L123.397 99.0095C123.397 99.0095 121.927 94.2128 120.436 93.8008L120.353 93.7019L120.179 93.8481C119.91 93.9059 119.869 94.1092 119.823 93.979L120.158 93.8234C119.897 93.9164 120.075 93.7246 120.034 93.6752C119.934 93.7215 119.826 93.7476 119.717 93.752C119.717 93.752 119.717 93.752 119.789 93.8384C119.862 93.9249 119.554 94.1632 119.367 94.1935C119.181 94.2238 119.222 94.0205 118.948 94.1239C117.395 94.7976 115.821 95.4466 114.341 96.2067C113.944 96.5409 113.471 96.685 113.08 96.9508C113.032 96.9547 112.983 96.9486 112.937 96.9329C112.891 96.9172 112.849 96.8922 112.813 96.8595C112.111 97.3062 111.373 97.6938 110.608 98.0182Z" fill="#313131"/>
</svg>
