<svg width="112" height="112" viewBox="0 0 112 112" fill="none" xmlns="http://www.w3.org/2000/svg">
<circle cx="56" cy="56" r="56" fill="#F2F2EC"/>
<path d="M50.7464 60.7404L61.2621 50.2246M41.964 60.1445L39.3 57.4805C38.2133 56.3938 38.2133 54.6062 39.3 53.5195L41.964 50.8555C42.4196 50.3998 42.7877 49.506 42.7877 48.8751V45.1069C42.7877 43.5646 44.0496 42.3027 45.5919 42.3027H49.36C49.991 42.3027 50.8848 41.9347 51.3405 41.479L54.0045 38.815C55.0911 37.7283 56.8788 37.7283 57.9655 38.815L60.6295 41.479C61.0851 41.9347 61.979 42.3027 62.6099 42.3027H66.3781C67.9204 42.3027 69.1823 43.5646 69.1823 45.1069V48.8751C69.1823 49.506 69.5503 50.3998 70.006 50.8555L72.67 53.5195C73.7566 54.6062 73.7566 56.3938 72.67 57.4805L70.006 60.1445C69.5503 60.6001 69.1823 61.494 69.1823 62.1249V65.8931C69.1823 67.4354 67.9204 68.6973 66.3781 68.6973H62.6099C61.979 68.6973 61.0851 69.0653 60.6295 69.521L57.9655 72.185C56.8788 73.2717 55.0911 73.2717 54.0045 72.185L51.3405 69.521C50.8848 69.0653 49.991 68.6973 49.36 68.6973H45.5919C44.0496 68.6973 42.7877 67.4354 42.7877 65.8931V62.1249C42.7877 61.4765 42.4196 60.5826 41.964 60.1445V60.1445Z" stroke="#345333" stroke-width="3" stroke-linecap="round" stroke-linejoin="round"/>
<path d="M60.377 59.8637H60.3928M51.6139 51.1006H51.6279" stroke="#345333" stroke-width="3" stroke-linecap="round" stroke-linejoin="round"/>
</svg>
