<svg width="112" height="112" viewBox="0 0 112 112" fill="none" xmlns="http://www.w3.org/2000/svg">
<circle cx="56" cy="56" r="56" fill="#F2F2EC"/>
<path d="M55.5 59H57.25C59.175 59 60.75 57.425 60.75 55.5V38H45C42.375 38 40.0825 39.4525 38.8925 41.5875" stroke="#345333" stroke-width="3" stroke-linecap="round" stroke-linejoin="round"/>
<path d="M38 64.25C38 67.155 40.345 69.5 43.25 69.5H45C45 67.575 46.575 66 48.5 66C50.425 66 52 67.575 52 69.5H59C59 67.575 60.575 66 62.5 66C64.425 66 66 67.575 66 69.5H67.75C70.655 69.5 73 67.155 73 64.25V59H67.75C66.7875 59 66 58.2125 66 57.25V52C66 51.0375 66.7875 50.25 67.75 50.25H70.0075L67.015 45.0175C66.7067 44.482 66.2631 44.0369 65.7287 43.7268C65.1944 43.4166 64.5879 43.2522 63.97 43.25H60.75V55.5C60.75 57.425 59.175 59 57.25 59H55.5" stroke="#345333" stroke-width="3" stroke-linecap="round" stroke-linejoin="round"/>
<path d="M38 48.5H48.5M38 53.75H45M38 59H41.5M48.5 73C49.4283 73 50.3185 72.6313 50.9749 71.9749C51.6313 71.3185 52 70.4283 52 69.5C52 68.5717 51.6313 67.6815 50.9749 67.0251C50.3185 66.3687 49.4283 66 48.5 66C47.5717 66 46.6815 66.3687 46.0251 67.0251C45.3687 67.6815 45 68.5717 45 69.5C45 70.4283 45.3687 71.3185 46.0251 71.9749C46.6815 72.6313 47.5717 73 48.5 73V73ZM62.5 73C63.4283 73 64.3185 72.6313 64.9749 71.9749C65.6313 71.3185 66 70.4283 66 69.5C66 68.5717 65.6313 67.6815 64.9749 67.0251C64.3185 66.3687 63.4283 66 62.5 66C61.5717 66 60.6815 66.3687 60.0251 67.0251C59.3687 67.6815 59 68.5717 59 69.5C59 70.4283 59.3687 71.3185 60.0251 71.9749C60.6815 72.6313 61.5717 73 62.5 73ZM73 55.5V59H67.75C66.7875 59 66 58.2125 66 57.25V52C66 51.0375 66.7875 50.25 67.75 50.25H70.0075L73 55.5Z" stroke="#345333" stroke-width="3" stroke-linecap="round" stroke-linejoin="round"/>
</svg>
