<svg width="112" height="112" viewBox="0 0 112 112" fill="none" xmlns="http://www.w3.org/2000/svg">
<circle cx="56" cy="56" r="56" fill="#F2F2EC"/>
<path d="M70.1787 51.4697C68.9645 49.3701 66.9972 47.8254 64.6863 47.157C62.3755 46.4886 59.899 46.748 57.7723 47.8813V38.9103H54.2277V47.8813C52.101 46.748 49.6245 46.4886 47.3137 47.157C45.0028 47.8254 43.0356 49.3701 41.8213 51.4697C38.2766 56.8523 47.1383 73 50.683 73C54.2277 73 54.2277 71.2058 56 71.2058C57.7723 71.2058 57.7723 73 61.317 73C64.8617 73 73.7234 56.8523 70.1787 51.4697ZM67.0771 57.5341C65.9783 61.9657 63.816 66.0385 60.7853 69.4116C60.4308 69.4116 60.0232 69.2322 59.7219 68.9631C58.6685 68.1008 57.3547 67.6304 56 67.6304C54.6453 67.6304 53.3315 68.1008 52.2781 68.9631C51.9768 69.2322 51.5692 69.4116 51.2147 69.4116C48.1756 66.0498 46.013 61.9735 44.9229 57.552C44.4798 56.2422 44.3912 54.8248 44.7634 53.4792C45.2678 52.5687 45.9966 51.8059 46.8786 51.2651C47.7607 50.7243 48.766 50.4239 49.7968 50.3932C50.7893 50.4111 51.7641 50.6444 52.6503 51.0929L54.2277 51.9003H57.7723L59.3497 51.0929C60.2359 50.6444 61.2107 50.4111 62.2032 50.3932C64.2945 50.447 66.2087 51.6132 67.2366 53.4612C67.6088 54.8069 67.5202 56.2243 67.0771 57.5341ZM54.2277 42.4987C44.2671 48.0069 42.0163 40.3098 42.0163 40.3098C42.0163 40.3098 46.7307 33.8686 54.2277 42.4987Z" fill="#345333"/>
</svg>
