<svg width="21" height="20" viewBox="0 0 21 20" fill="none" xmlns="http://www.w3.org/2000/svg">
<path d="M11.7289 1.4325L13.4889 4.9525C13.7289 5.4425 14.3689 5.9125 14.9089 6.0025L18.0989 6.5325C20.1389 6.8725 20.6189 8.3525 19.1489 9.8125L16.6689 12.2925C16.2489 12.7125 16.0189 13.5225 16.1489 14.1025L16.8589 17.1725C17.4189 19.6025 16.1289 20.5425 13.9789 19.2725L10.9889 17.5025C10.4489 17.1825 9.55893 17.1825 9.00893 17.5025L6.01893 19.2725C3.87893 20.5425 2.57893 19.5925 3.13893 17.1725L3.84893 14.1025C3.97893 13.5225 3.74893 12.7125 3.32893 12.2925L0.848932 9.8125C-0.611068 8.3525 -0.141067 6.8725 1.89893 6.5325L5.08893 6.0025C5.61893 5.9125 6.25893 5.4425 6.49893 4.9525L8.25893 1.4325C9.21893 -0.4775 10.7789 -0.4775 11.7289 1.4325Z" fill="#345333"/>
</svg>
