<svg width="62" height="62" viewBox="0 0 62 62" fill="none" xmlns="http://www.w3.org/2000/svg">
<circle cx="31" cy="31" r="31" fill="#496547"/>
<path d="M26.8 21H35.2C38.4 21 41 23.6 41 26.8V35.2C41 36.7383 40.3889 38.2135 39.3012 39.3012C38.2135 40.3889 36.7383 41 35.2 41H26.8C23.6 41 21 38.4 21 35.2V26.8C21 25.2617 21.6111 23.7865 22.6988 22.6988C23.7865 21.6111 25.2617 21 26.8 21M26.6 23C25.6452 23 24.7295 23.3793 24.0544 24.0544C23.3793 24.7295 23 25.6452 23 26.6V35.4C23 37.39 24.61 39 26.6 39H35.4C36.3548 39 37.2705 38.6207 37.9456 37.9456C38.6207 37.2705 39 36.3548 39 35.4V26.6C39 24.61 37.39 23 35.4 23H26.6ZM36.25 24.5C36.5815 24.5 36.8995 24.6317 37.1339 24.8661C37.3683 25.1005 37.5 25.4185 37.5 25.75C37.5 26.0815 37.3683 26.3995 37.1339 26.6339C36.8995 26.8683 36.5815 27 36.25 27C35.9185 27 35.6005 26.8683 35.3661 26.6339C35.1317 26.3995 35 26.0815 35 25.75C35 25.4185 35.1317 25.1005 35.3661 24.8661C35.6005 24.6317 35.9185 24.5 36.25 24.5ZM31 26C32.3261 26 33.5979 26.5268 34.5355 27.4645C35.4732 28.4021 36 29.6739 36 31C36 32.3261 35.4732 33.5979 34.5355 34.5355C33.5979 35.4732 32.3261 36 31 36C29.6739 36 28.4021 35.4732 27.4645 34.5355C26.5268 33.5979 26 32.3261 26 31C26 29.6739 26.5268 28.4021 27.4645 27.4645C28.4021 26.5268 29.6739 26 31 26M31 28C30.2044 28 29.4413 28.3161 28.8787 28.8787C28.3161 29.4413 28 30.2044 28 31C28 31.7956 28.3161 32.5587 28.8787 33.1213C29.4413 33.6839 30.2044 34 31 34C31.7956 34 32.5587 33.6839 33.1213 33.1213C33.6839 32.5587 34 31.7956 34 31C34 30.2044 33.6839 29.4413 33.1213 28.8787C32.5587 28.3161 31.7956 28 31 28Z" fill="#F2F2EC"/>
</svg>
