<svg width="50" height="50" viewBox="0 0 50 50" fill="none" xmlns="http://www.w3.org/2000/svg">
<circle cx="25" cy="24.9646" r="24.9646" fill="#F5EAD5"/>
<path d="M27.7098 25.1896C27.7098 26.7842 26.4213 28.0727 24.8268 28.0727C23.2323 28.0727 21.9438 26.7842 21.9438 25.1896C21.9438 23.5951 23.2323 22.3066 24.8268 22.3066C26.4213 22.3066 27.7098 23.5951 27.7098 25.1896Z" stroke="#345333" stroke-width="2" stroke-linecap="round" stroke-linejoin="round"/>
<path d="M24.8269 31.8498C27.6696 31.8498 30.3191 30.1748 32.1632 27.2757C32.888 26.1402 32.888 24.2316 32.1632 23.0961C30.3191 20.197 27.6696 18.522 24.8269 18.522C21.9841 18.522 19.3346 20.197 17.4905 23.0961C16.7657 24.2316 16.7657 26.1402 17.4905 27.2757C19.3346 30.1748 21.9841 31.8498 24.8269 31.8498Z" stroke="#345333" stroke-width="2" stroke-linecap="round" stroke-linejoin="round"/>
</svg>
