<svg width="13" height="13" viewBox="0 0 13 13" fill="none" xmlns="http://www.w3.org/2000/svg">
<path d="M6.0931 12.764C5.94007 12.6067 5.85995 12.4065 5.85271 12.1634C5.84604 11.9202 5.91921 11.72 6.07223 11.5627L10.1621 7.35809H0.834671C0.598181 7.35809 0.399808 7.27571 0.239551 7.11096C0.0798503 6.94678 0 6.74312 0 6.5C0 6.25688 0.0798503 6.05294 0.239551 5.88818C0.399808 5.724 0.598181 5.64191 0.834671 5.64191H10.1621L6.07223 1.43729C5.91921 1.27998 5.84604 1.07976 5.85271 0.836634C5.85995 0.593509 5.94007 0.393289 6.0931 0.235973C6.24612 0.0786575 6.44088 0 6.67737 0C6.91386 0 7.10861 0.0786575 7.26164 0.235973L12.7705 5.89934C12.8539 5.97085 12.9132 6.06009 12.9482 6.16706C12.9827 6.27461 13 6.38559 13 6.5C13 6.61441 12.9827 6.72167 12.9482 6.82178C12.9132 6.92189 12.8539 7.01485 12.7705 7.10066L7.26164 12.764C7.10861 12.9213 6.91386 13 6.67737 13C6.44088 13 6.24612 12.9213 6.0931 12.764Z" fill="#F2F2EC"/>
</svg>
