<svg width="62" height="62" viewBox="0 0 62 62" fill="none" xmlns="http://www.w3.org/2000/svg">
<circle cx="31" cy="31" r="31" fill="#D6DAD1"/>
<path d="M34 21V31C34 32.1 33.1 33 32 33H21V25C21 22.79 22.79 21 25 21H34Z" stroke="#345333" stroke-width="2" stroke-linecap="round" stroke-linejoin="round"/>
<path d="M41 33V36C41 37.66 39.66 39 38 39H37C37 37.9 36.1 37 35 37C33.9 37 33 37.9 33 39H29C29 37.9 28.1 37 27 37C25.9 37 25 37.9 25 39H24C22.34 39 21 37.66 21 36V33H32C33.1 33 34 32.1 34 31V24H35.84C36.56 24 37.22 24.39 37.58 25.01L39.29 28H38C37.45 28 37 28.45 37 29V32C37 32.55 37.45 33 38 33H41Z" stroke="#345333" stroke-width="2" stroke-linecap="round" stroke-linejoin="round"/>
<path d="M27 41C27.5304 41 28.0391 40.7893 28.4142 40.4142C28.7893 40.0391 29 39.5304 29 39C29 38.4696 28.7893 37.9609 28.4142 37.5858C28.0391 37.2107 27.5304 37 27 37C26.4696 37 25.9609 37.2107 25.5858 37.5858C25.2107 37.9609 25 38.4696 25 39C25 39.5304 25.2107 40.0391 25.5858 40.4142C25.9609 40.7893 26.4696 41 27 41V41ZM35 41C35.5304 41 36.0391 40.7893 36.4142 40.4142C36.7893 40.0391 37 39.5304 37 39C37 38.4696 36.7893 37.9609 36.4142 37.5858C36.0391 37.2107 35.5304 37 35 37C34.4696 37 33.9609 37.2107 33.5858 37.5858C33.2107 37.9609 33 38.4696 33 39C33 39.5304 33.2107 40.0391 33.5858 40.4142C33.9609 40.7893 34.4696 41 35 41ZM41 31V33H38C37.45 33 37 32.55 37 32V29C37 28.45 37.45 28 38 28H39.29L41 31Z" stroke="#345333" stroke-width="2" stroke-linecap="round" stroke-linejoin="round"/>
</svg>
