<svg width="62" height="62" viewBox="0 0 62 62" fill="none" xmlns="http://www.w3.org/2000/svg">
<circle cx="31" cy="31" r="31" fill="#496547"/>
<path d="M34.905 25.0013C34.145 25.0012 33.4153 25.2994 32.8729 25.8319C32.3305 26.3643 32.0189 27.0884 32.005 27.8483L31.977 29.4233C31.9754 29.5079 31.9559 29.5911 31.9198 29.6676C31.8837 29.7441 31.8319 29.8121 31.7676 29.8672C31.7034 29.9222 31.6283 29.9631 31.5472 29.987C31.4661 30.011 31.3808 30.0176 31.297 30.0063L29.736 29.7943C27.682 29.5143 25.714 28.5683 23.826 26.9953C23.228 30.3053 24.396 32.5983 27.209 34.3673L28.956 35.4653C29.039 35.5175 29.108 35.5892 29.1568 35.6741C29.2057 35.7591 29.233 35.8548 29.2364 35.9528C29.2397 36.0507 29.219 36.1481 29.1761 36.2362C29.1331 36.3243 29.0692 36.4006 28.99 36.4583L27.398 37.6213C28.345 37.6803 29.244 37.6383 29.99 37.4903C34.708 36.5483 37.845 32.9983 37.845 27.1423C37.845 26.6643 36.833 25.0013 34.905 25.0013V25.0013ZM30.005 27.8113C30.0225 26.8473 30.3239 25.91 30.8716 25.1165C31.4192 24.3231 32.1888 23.7088 33.0839 23.3507C33.979 22.9925 34.9599 22.9064 35.9037 23.103C36.8476 23.2997 37.7124 23.7704 38.39 24.4563C39.101 24.4513 39.706 24.6313 41.059 23.8113C40.724 25.4513 40.559 26.1633 39.845 27.1423C39.845 34.7843 35.148 38.5003 30.382 39.4513C27.114 40.1033 22.362 39.0323 21 37.6103C21.694 37.5563 24.514 37.2533 26.144 36.0603C24.765 35.1513 19.276 31.9213 22.883 23.2373C24.576 25.2143 26.293 26.5603 28.033 27.2743C29.191 27.7493 29.475 27.7393 30.006 27.8123L30.005 27.8113Z" fill="#F2F2EC"/>
</svg>
