<svg width="62" height="62" viewBox="0 0 62 62" fill="none" xmlns="http://www.w3.org/2000/svg">
<circle cx="31" cy="31" r="31" fill="#496547"/>
<path d="M31 23C31.855 23 32.732 23.022 33.582 23.058L34.586 23.106L35.547 23.163L36.447 23.224L37.269 23.288C38.161 23.3563 39.0004 23.7369 39.6395 24.363C40.2786 24.9891 40.6764 25.8205 40.763 26.711L40.803 27.136L40.878 28.046C40.948 28.989 41 30.017 41 31C41 31.983 40.948 33.011 40.878 33.954L40.803 34.864C40.79 35.01 40.777 35.151 40.763 35.289C40.6764 36.1796 40.2784 37.0112 39.6391 37.6373C38.9999 38.2634 38.1602 38.6439 37.268 38.712L36.448 38.775L35.548 38.837L34.586 38.894L33.582 38.942C32.7218 38.9794 31.861 38.9987 31 39C30.139 38.9987 29.2782 38.9794 28.418 38.942L27.414 38.894L26.453 38.837L25.553 38.775L24.731 38.712C23.839 38.6437 22.9996 38.2631 22.3605 37.637C21.7214 37.0109 21.3236 36.1795 21.237 35.289L21.197 34.864L21.122 33.954C21.0455 32.9711 21.0048 31.9858 21 31C21 30.017 21.052 28.989 21.122 28.046L21.197 27.136C21.21 26.99 21.223 26.849 21.237 26.711C21.3235 25.8207 21.7212 24.9894 22.3601 24.3633C22.999 23.7373 23.8381 23.3565 24.73 23.288L25.551 23.224L26.451 23.163L27.413 23.106L28.417 23.058C29.2775 23.0206 30.1387 23.0013 31 23V23ZM31 25C30.175 25 29.326 25.022 28.5 25.056L27.522 25.103L26.583 25.158L25.701 25.218L24.893 25.281C24.4683 25.3111 24.068 25.4906 23.7631 25.7877C23.4581 26.0848 23.2682 26.4803 23.227 26.904C23.11 28.113 23 29.618 23 31C23 32.382 23.11 33.887 23.227 35.096C23.312 35.968 24.004 36.646 24.893 36.719L25.701 36.781L26.583 36.841L27.522 36.897L28.5 36.944C29.326 36.978 30.175 37 31 37C31.825 37 32.674 36.978 33.5 36.944L34.478 36.897L35.417 36.842L36.299 36.782L37.107 36.719C37.5317 36.6889 37.932 36.5094 38.2369 36.2123C38.5419 35.9152 38.7318 35.5197 38.773 35.096C38.89 33.887 39 32.382 39 31C39 29.618 38.89 28.113 38.773 26.904C38.7318 26.4803 38.5419 26.0848 38.2369 25.7877C37.932 25.4906 37.5317 25.3111 37.107 25.281L36.299 25.219L35.417 25.159L34.478 25.103L33.5 25.056C32.6671 25.0202 31.8336 25.0015 31 25V25ZM29 28.575C28.9999 28.4773 29.0237 28.381 29.0694 28.2946C29.115 28.2081 29.181 28.1341 29.2618 28.079C29.3425 28.0239 29.4354 27.9894 29.5326 27.9784C29.6297 27.9674 29.728 27.9803 29.819 28.016L29.9 28.056L34.1 30.48C34.1836 30.5283 34.2544 30.596 34.3063 30.6774C34.3581 30.7589 34.3896 30.8517 34.3979 30.9478C34.4062 31.044 34.3912 31.1408 34.3542 31.23C34.3171 31.3192 34.2591 31.3981 34.185 31.46L34.1 31.52L29.9 33.945C29.8154 33.994 29.72 34.0216 29.6223 34.0253C29.5246 34.0291 29.4274 34.0089 29.3393 33.9665C29.2511 33.9241 29.1747 33.8608 29.1166 33.7821C29.0585 33.7034 29.0205 33.6117 29.006 33.515L29 33.425V28.575V28.575Z" fill="#F2F2EC"/>
</svg>
